<svg width="984" height="620" viewBox="0 0 984 620" fill="none" xmlns="http://www.w3.org/2000/svg">
<line x1="2" y1="542" x2="2.00002" y2="-0.000915614" stroke="#f2f2f2" stroke-width="2"/>
<line x1="1" y1="2" x2="984" y2="2" stroke="#f2f2f2" stroke-width="2"/>
<line x1="1" y1="169" x2="984" y2="169" stroke="#f2f2f2" stroke-width="2"/>
<line x1="214" y1="542" x2="214" y2="169" stroke="#f2f2f2" stroke-width="2"/>
<line x1="1" y1="540" x2="216" y2="540" stroke="#f2f2f2" stroke-width="2"/>
<line x1="1" y1="440" x2="216" y2="440" stroke="#f2f2f2" stroke-width="2"/>
<line x1="1" y1="489" x2="216" y2="489" stroke="#f2f2f2" stroke-width="2"/>
<line x1="1" y1="385" x2="216" y2="385" stroke="#f2f2f2" stroke-width="2"/>
<line x1="1" y1="329" x2="216" y2="329" stroke="#f2f2f2" stroke-width="2"/>
<line x1="1" y1="272" x2="216" y2="272" stroke="#f2f2f2" stroke-width="2"/>
<line x1="1" y1="219" x2="216" y2="219" stroke="#f2f2f2" stroke-width="2"/>
<line x1="2" y1="542" x2="2.00002" y2="-0.000915614" stroke="#f2f2f2" stroke-width="2"/>
<line x1="1" y1="2" x2="984" y2="2" stroke="#f2f2f2" stroke-width="2"/>
<line x1="1" y1="169" x2="984" y2="169" stroke="#f2f2f2" stroke-width="2"/>
<line x1="214" y1="542" x2="214" y2="4" stroke="#f2f2f2" stroke-width="2"/>
<line x1="1" y1="540" x2="216" y2="540" stroke="#f2f2f2" stroke-width="2"/>
<line x1="1" y1="440" x2="216" y2="440" stroke="#f2f2f2" stroke-width="2"/>
<line x1="1" y1="489" x2="216" y2="489" stroke="#f2f2f2" stroke-width="2"/>
<line x1="1" y1="385" x2="216" y2="385" stroke="#f2f2f2" stroke-width="2"/>
<line x1="1" y1="329" x2="216" y2="329" stroke="#f2f2f2" stroke-width="2"/>
<line x1="1" y1="272" x2="216" y2="272" stroke="#f2f2f2" stroke-width="2"/>
<line x1="1" y1="219" x2="216" y2="219" stroke="#f2f2f2" stroke-width="2"/>
<line x1="580" y1="169" x2="580" y2="4" stroke="#f2f2f2" stroke-width="2"/>
<line x1="480" y1="169" x2="480" y2="4" stroke="#f2f2f2" stroke-width="2"/>
<line x1="529" y1="169" x2="529" y2="4" stroke="#f2f2f2" stroke-width="2"/>
<line x1="425" y1="169" x2="425" y2="4" stroke="#f2f2f2" stroke-width="2"/>
<line x1="369" y1="169" x2="369" y2="4" stroke="#f2f2f2" stroke-width="2"/>
<line x1="312" y1="169" x2="312" y2="4" stroke="#f2f2f2" stroke-width="2"/>
<line x1="259" y1="169" x2="259" y2="4" stroke="#f2f2f2" stroke-width="2"/>
<line x1="580" y1="169" x2="580" y2="4" stroke="#f2f2f2" stroke-width="2"/>
<line x1="480" y1="169" x2="480" y2="4" stroke="#f2f2f2" stroke-width="2"/>
<line x1="529" y1="169" x2="529" y2="4" stroke="#f2f2f2" stroke-width="2"/>
<line x1="723" y1="169" x2="723" y2="4" stroke="#f2f2f2" stroke-width="2"/>
<line x1="623" y1="169" x2="623" y2="4" stroke="#f2f2f2" stroke-width="2"/>
<line x1="672" y1="169" x2="672" y2="4" stroke="#f2f2f2" stroke-width="2"/>
<line x1="723" y1="169" x2="723" y2="4" stroke="#f2f2f2" stroke-width="2"/>
<line x1="623" y1="169" x2="623" y2="4" stroke="#f2f2f2" stroke-width="2"/>
<line x1="672" y1="169" x2="672" y2="4" stroke="#f2f2f2" stroke-width="2"/>
<line x1="425" y1="169" x2="425" y2="4" stroke="#f2f2f2" stroke-width="2"/>
<line x1="369" y1="169" x2="369" y2="4" stroke="#f2f2f2" stroke-width="2"/>
<line x1="312" y1="169" x2="312" y2="4" stroke="#f2f2f2" stroke-width="2"/>
<line x1="259" y1="169" x2="259" y2="4" stroke="#f2f2f2" stroke-width="2"/>
<line x1="770" y1="546.001" x2="770" y2="4" stroke="#f2f2f2" stroke-width="2"/>
<line x1="982" y1="546.001" x2="982" y2="173.001" stroke="#f2f2f2" stroke-width="2"/>
<line x1="769" y1="544.001" x2="984" y2="544.001" stroke="#f2f2f2" stroke-width="2"/>
<line x1="769" y1="444.001" x2="984" y2="444.001" stroke="#f2f2f2" stroke-width="2"/>
<line x1="769" y1="493.001" x2="984" y2="493.001" stroke="#f2f2f2" stroke-width="2"/>
<line x1="769" y1="389.001" x2="984" y2="389.001" stroke="#f2f2f2" stroke-width="2"/>
<line x1="769" y1="333.001" x2="984" y2="333.001" stroke="#f2f2f2" stroke-width="2"/>
<line x1="769" y1="276.001" x2="984" y2="276.001" stroke="#f2f2f2" stroke-width="2"/>
<line x1="769" y1="223.001" x2="984" y2="223.001" stroke="#f2f2f2" stroke-width="2"/>
<line x1="770" y1="546.001" x2="770" y2="4" stroke="#f2f2f2" stroke-width="2"/>
<line x1="982" y1="546.001" x2="982" y2="4.00092" stroke="#f2f2f2" stroke-width="2"/>
<line x1="769" y1="544.001" x2="984" y2="544.001" stroke="#f2f2f2" stroke-width="2"/>
<line x1="769" y1="444.001" x2="984" y2="444.001" stroke="#f2f2f2" stroke-width="2"/>
<line x1="769" y1="493.001" x2="984" y2="493.001" stroke="#f2f2f2" stroke-width="2"/>
<line x1="769" y1="389.001" x2="984" y2="389.001" stroke="#f2f2f2" stroke-width="2"/>
<line x1="769" y1="333.001" x2="984" y2="333.001" stroke="#f2f2f2" stroke-width="2"/>
<line x1="769" y1="276.001" x2="984" y2="276.001" stroke="#f2f2f2" stroke-width="2"/>
<line x1="769" y1="223.001" x2="984" y2="223.001" stroke="#f2f2f2" stroke-width="2"/>
<line x1="105" y1="542" x2="105" y2="86" stroke="#f2f2f2" stroke-width="6"/>
<line x1="877" y1="89" x2="102" y2="89" stroke="#f2f2f2" stroke-width="6"/>
<line x1="874" y1="617" x2="874" y2="90" stroke="#f2f2f2" stroke-width="6"/>
<line x1="842.121" y1="583.879" x2="876.121" y2="617.879" stroke="#f2f2f2" stroke-width="6"/>
<line y1="-3" x2="45.08" y2="-3" transform="matrix(-0.707107 0.707107 0.707107 0.707107 908 586)" stroke="#f2f2f2" stroke-width="6"/>
<line x1="213.557" y1="541.258" x2="479.557" y2="168.258" stroke="#f2f2f2" stroke-width="6"/>
<line y1="-3" x2="458.132" y2="-3" transform="matrix(-0.580619 -0.814176 -0.814176 0.580619 479 543)" stroke="#f2f2f2" stroke-width="6"/>
<line x1="500.557" y1="541.258" x2="766.557" y2="168.258" stroke="#f2f2f2" stroke-width="6"/>
<line y1="-3" x2="458.132" y2="-3" transform="matrix(-0.580619 -0.814176 -0.814176 0.580619 767 544)" stroke="#f2f2f2" stroke-width="6"/>
</svg>
