<svg width="568" height="625" viewBox="0 0 568 625" fill="none" xmlns="http://www.w3.org/2000/svg">
<line x1="2" y1="542.001" x2="2.00002" y2="6.09484e-05" stroke="#f2f2f2" stroke-width="2"/>
<line x1="214" y1="542.001" x2="214" y2="169.001" stroke="#f2f2f2" stroke-width="2"/>
<line x1="1" y1="540.001" x2="216" y2="540.001" stroke="#f2f2f2" stroke-width="2"/>
<line x1="1" y1="440.001" x2="216" y2="440.001" stroke="#f2f2f2" stroke-width="2"/>
<line x1="1" y1="489.001" x2="216" y2="489.001" stroke="#f2f2f2" stroke-width="2"/>
<line x1="1" y1="385.001" x2="216" y2="385.001" stroke="#f2f2f2" stroke-width="2"/>
<line x1="1" y1="329.001" x2="216" y2="329.001" stroke="#f2f2f2" stroke-width="2"/>
<line x1="1" y1="272.001" x2="216" y2="272.001" stroke="#f2f2f2" stroke-width="2"/>
<line x1="1" y1="219.001" x2="216" y2="219.001" stroke="#f2f2f2" stroke-width="2"/>
<line x1="2" y1="542.001" x2="2.00002" y2="6.09484e-05" stroke="#f2f2f2" stroke-width="2"/>
<line x1="4" y1="2" x2="568" y2="2" stroke="#f2f2f2" stroke-width="2"/>
<line x1="4" y1="169" x2="568" y2="169" stroke="#f2f2f2" stroke-width="2"/>
<line x1="214" y1="542.001" x2="214" y2="4.00098" stroke="#f2f2f2" stroke-width="2"/>
<line x1="1" y1="540.001" x2="216" y2="540.001" stroke="#f2f2f2" stroke-width="2"/>
<line x1="1" y1="440.001" x2="216" y2="440.001" stroke="#f2f2f2" stroke-width="2"/>
<line x1="1" y1="489.001" x2="216" y2="489.001" stroke="#f2f2f2" stroke-width="2"/>
<line x1="1" y1="385.001" x2="216" y2="385.001" stroke="#f2f2f2" stroke-width="2"/>
<line x1="1" y1="329.001" x2="216" y2="329.001" stroke="#f2f2f2" stroke-width="2"/>
<line x1="1" y1="272.001" x2="216" y2="272.001" stroke="#f2f2f2" stroke-width="2"/>
<line x1="1" y1="219.001" x2="216" y2="219.001" stroke="#f2f2f2" stroke-width="2"/>
<line x1="339" y1="546.001" x2="339" y2="4.00006" stroke="#f2f2f2" stroke-width="2"/>
<line x1="566" y1="546.001" x2="566" y2="173.001" stroke="#f2f2f2" stroke-width="2"/>
<line x1="338" y1="544.001" x2="568" y2="544.001" stroke="#f2f2f2" stroke-width="2"/>
<line x1="338" y1="444.001" x2="568" y2="444.001" stroke="#f2f2f2" stroke-width="2"/>
<line x1="338" y1="493.001" x2="568" y2="493.001" stroke="#f2f2f2" stroke-width="2"/>
<line x1="338" y1="389.001" x2="568" y2="389.001" stroke="#f2f2f2" stroke-width="2"/>
<line x1="338" y1="333.001" x2="568" y2="333.001" stroke="#f2f2f2" stroke-width="2"/>
<line x1="338" y1="276.001" x2="568" y2="276.001" stroke="#f2f2f2" stroke-width="2"/>
<line x1="338" y1="223.001" x2="568" y2="223.001" stroke="#f2f2f2" stroke-width="2"/>
<line x1="339" y1="546.001" x2="339" y2="4.00006" stroke="#f2f2f2" stroke-width="2"/>
<line x1="566" y1="546.001" x2="566" y2="4.00098" stroke="#f2f2f2" stroke-width="2"/>
<line x1="338" y1="544.001" x2="568" y2="544.001" stroke="#f2f2f2" stroke-width="2"/>
<line x1="338" y1="444.001" x2="568" y2="444.001" stroke="#f2f2f2" stroke-width="2"/>
<line x1="338" y1="493.001" x2="568" y2="493.001" stroke="#f2f2f2" stroke-width="2"/>
<line x1="338" y1="389.001" x2="568" y2="389.001" stroke="#f2f2f2" stroke-width="2"/>
<line x1="338" y1="333.001" x2="568" y2="333.001" stroke="#f2f2f2" stroke-width="2"/>
<line x1="338" y1="276.001" x2="568" y2="276.001" stroke="#f2f2f2" stroke-width="2"/>
<line x1="338" y1="223.001" x2="568" y2="223.001" stroke="#f2f2f2" stroke-width="2"/>
<line x1="105" y1="546" x2="105" y2="90" stroke="#f2f2f2" stroke-width="6"/>
<line x1="421.121" y1="588.879" x2="455.121" y2="622.879" stroke="#f2f2f2" stroke-width="6"/>
<line y1="-3" x2="45.08" y2="-3" transform="matrix(-0.707107 0.707107 0.707107 0.707107 487 591)" stroke="#f2f2f2" stroke-width="6"/>
<line x1="453" y1="93" x2="107" y2="93" stroke="#f2f2f2" stroke-width="6"/>
<line x1="454" y1="617" x2="454" y2="90" stroke="#f2f2f2" stroke-width="6"/>
</svg>
