<svg width="493" height="279" viewBox="0 0 493 279" fill="none" xmlns="http://www.w3.org/2000/svg">
<line y1="2" x2="200" y2="2" stroke="white" stroke-width="4"/>
<line y1="67" x2="200" y2="67" stroke="white" stroke-width="4"/>
<line x1="2" y1="4" x2="2" y2="69" stroke="white" stroke-width="4"/>
<line x1="198" y1="4" x2="198" y2="69" stroke="white" stroke-width="4"/>
<line x1="23" y1="69" x2="23" y2="89" stroke="white" stroke-width="4"/>
<line x1="177" y1="69" x2="177" y2="89" stroke="white" stroke-width="4"/>
<line x1="293" y1="2" x2="493" y2="2" stroke="white" stroke-width="4"/>
<line x1="314" y1="34" x2="468" y2="34" stroke="white" stroke-width="4"/>
<line x1="295" y1="144" x2="492" y2="144" stroke="white" stroke-width="4"/>
<line x1="295" y1="4" x2="295" y2="146" stroke="white" stroke-width="4"/>
<line x1="491" y1="4" x2="491" y2="146" stroke="white" stroke-width="4"/>
<path d="M22.5248 89L18.0117 114.116L16.7701 121.149C14.9269 131.59 14 142.172 14 152.775V152.775C14 163.658 14.9767 174.52 16.9183 185.229L18.0117 191.259L20.3787 200.355C21.8071 205.843 23.6776 211.208 25.972 216.394V216.394C28.6513 222.451 31.8975 228.241 35.667 233.687L39 238.502L52 254L55.4975 257.747C62.3742 265.115 71.0942 270.512 80.7558 273.381V273.381C91.9752 276.711 103.951 276.481 115.034 272.721L117.57 271.86C123.149 269.967 128.367 267.14 133 263.5V263.5V263.5C140.639 257.19 147.485 249.978 153.389 242.021L156 238.502L165 225.5L166.832 222.483C171.262 215.186 174.819 207.394 177.429 199.266V199.266C179.14 193.936 180.438 188.482 181.311 182.952L183.493 169.133L184.999 149.734C185.665 141.157 185.525 132.537 184.582 123.987V123.987C183.857 117.415 182.659 110.904 180.998 104.505L176.974 89" stroke="white" stroke-width="4"/>
<path d="M44.8987 90.5L34.6122 104.457C28.6944 112.486 24.714 121.776 22.9822 131.599V131.599C22.3287 135.306 22 139.063 22 142.827V151.549C22 161.37 22.8802 171.171 24.63 180.835L25.6152 186.276L27.7679 194.559C29.042 199.462 30.7107 204.253 32.7575 208.887V208.887C35.1926 214.399 38.1525 219.664 41.5964 224.609L44.8987 229.351L56.6138 243.336L57.5081 244.411C64.0229 252.239 72.7508 257.916 82.5479 260.698V260.698C92.4138 263.5 102.899 263.233 112.609 259.934L115.33 259.009C120.36 257.301 125.063 254.749 129.238 251.464V251.464V251.464C136.122 245.77 142.29 239.263 147.609 232.086L149.965 228.907L158.076 217.174L160.475 213.216C163.972 207.449 166.839 201.323 169.027 194.944V194.944C171.004 189.179 172.417 183.236 173.246 177.198L174.741 166.31L176.652 141.66C176.883 138.673 176.835 135.672 176.507 132.694V132.694C175.361 122.293 170.847 112.552 163.652 104.954L149.965 90.5" stroke="white" stroke-width="4"/>
<line x1="43" y1="91" x2="151" y2="91" stroke="white" stroke-width="4"/>
<path d="M315.5 34.5H303L295.5 48.5M467.5 34.5H480L490.5 48.5" stroke="white" stroke-width="4"/>
</svg>
